<svg xmlns:xlink="http://www.w3.org/1999/xlink" xmlns="http://www.w3.org/2000/svg" x="0px" y="0px" viewBox="0 0 40 34" enable-background="new 0 0 40 34" focusable="false" style="fill: rgb(255, 255, 255); height: 100%; left: 0px; stroke-width: 0px; top: 0px; width: 100%;" width="40"  height="34" ><g fill="#FFFFFF" stroke-width="0px" style="transform: translateX(1.25px); transition: transform 100ms ease 0s;"><g fill="#FFFFFF" stroke-width="0px"><path d="M13.8,14.2c-0.5,0.5-1.4,0.8-2,0.8h-1.6C9.5,15,9,15.5,9,16.2v1.6c0,0.7,0.5,1.2,1.2,1.2h1.6c0.7,0,1.6,0.4,2,0.8l2.3,2.3c0.5,0.5,0.8,0.3,0.8-0.4v-9.6c0-0.7-0.4-0.8-0.8-0.4L13.8,14.2z" fill="#FFFFFF" stroke-width="0px"></path></g><g fill="#FFFFFF" stroke-width="0px"><path fill="none" stroke="#FFFFFF" stroke-line-cap="round" stroke-miterlimit="10" stroke-width="2px" d="M22,11.7c0,0,1.1,2.5,1.1,5s-1.1,5-1.1,5" style="opacity: 1; transition: opacity 100ms ease 0s;"></path><path fill="none" stroke="#FFFFFF" stroke-line-cap="round" stroke-miterlimit="10" stroke-width="2px" d="M25.8,9.2c0,0,1.7,3.8,1.7,7.5c0,3.7-1.7,7.5-1.7,7.5" style="opacity: 1; transition: opacity 100ms ease 0s;"></path></g><g fill="#FFFFFF" stroke-width="0px" style="opacity: 0; transition: opacity 100ms ease 0s;"><line fill="none" stroke="#FFFFFF" stroke-line-cap="round" stroke-miterlimit="10" stroke-width="1.8102px" x1="19.2" y1="15" x2="23.2" y2="19"></line><line fill="none" stroke="#FFFFFF" stroke-line-cap="round" stroke-miterlimit="10" stroke-width="1.8102px" x1="19.2" y1="19" x2="23.2" y2="15"></line></g></g></svg>