<svg xmlns:xlink="http://www.w3.org/1999/xlink" xmlns="http://www.w3.org/2000/svg" x="0px" y="0px" viewBox="0 0 40 34" enable-background="new 0 0 40 34" focusable="false" style="fill: rgb(255, 255, 255); height: 100%; left: 0px; stroke-width: 0px; top: 0px; width: 100%;" width="40"  height="34" ><g fill="#FFFFFF" stroke-width="0px"><path fill="none" stroke="#FFFFFF" stroke-linecap="round" stroke-miterlimit="10" stroke-width="1.8px" d="M18.4,18.7c-0.5,0.7-1.1,1.2-2.1,1.2c-1.3,0-2.4-1.1-2.4-2.8c0-1.6,1-2.8,2.4-2.8c1,0,1.6,0.5,2,1.2"></path></g><g fill="#FFFFFF" stroke-width="0px"><path fill="none" stroke="#FFFFFF" stroke-linecap="round" stroke-miterlimit="10" stroke-width="1.8px" d="M25.8,18.7c-0.5,0.7-1.1,1.2-2.1,1.2c-1.3,0-2.4-1.1-2.4-2.8c0-1.6,1-2.8,2.4-2.8c1,0,1.6,0.5,2,1.2"></path></g><g fill="#FFFFFF" stroke-width="0px"><path fill="none" stroke="#FFFFFF" stroke-linecap="round" stroke-miterlimit="10" stroke-width="2px" d="M31,21.9c0,1.6-1.4,3-3,3H12c-1.6,0-3-1.4-3-3V12c0-1.6,1.4-3,3-3h16c1.6,0,3,1.4,3,3V21.9z"></path></g></svg>