<svg xmlns:xlink="http://www.w3.org/1999/xlink" xmlns="http://www.w3.org/2000/svg" x="0px" y="0px" viewBox="0 0 40 34" enable-background="new 0 0 40 34" focusable="false" style="fill: rgb(255, 255, 255); height: 100%; left: 0px; stroke-width: 0px; top: 0px; width: 100%;" width="40"  height="34" ><g fill="#FFFFFF" stroke-width="0px"><g fill="#FFFFFF" stroke-width="0px"><path d="M28.3,16.4h-1.9c-0.4,0-0.8-0.3-0.9-0.7l-0.4-1.1c-0.2-0.3-0.1-0.8,0.2-1.1l1.3-1.3c0.3-0.3,0.3-0.7,0-1l-0.4-0.4c-0.3-0.3-0.7-0.3-1,0l-1.3,1.3c-0.3,0.3-0.8,0.3-1.1,0.1l-1.1-0.5c-0.4-0.1-0.7-0.5-0.7-0.9V9.1c0-0.4-0.3-0.7-0.7-0.7h-0.6c-0.4,0-0.7,0.3-0.7,0.7v1.7c0,0.4-0.3,0.8-0.7,0.9l-1.2,0.5c-0.3,0.2-0.8,0.1-1.1-0.2l-1.2-1.2c-0.3-0.3-0.7-0.3-1,0l-0.4,0.4c-0.3,0.3-0.3,0.7,0,1l1.2,1.2c0.3,0.3,0.3,0.8,0.1,1.1l-0.5,1.2c-0.1,0.4-0.5,0.7-0.9,0.7h-1.6c-0.4,0-0.7,0.3-0.7,0.7v0.6c0,0.4,0.3,0.7,0.7,0.7h1.6c0.4,0,0.8,0.3,0.9,0.7l0.5,1.2c0.2,0.3,0.1,0.8-0.1,1.1l-1.2,1.2c-0.3,0.3-0.3,0.7,0,1l0.4,0.4c0.3,0.3,0.7,0.3,1,0l1.2-1.2c0.3-0.3,0.8-0.3,1.1-0.2l1.2,0.5c0.4,0.1,0.7,0.5,0.7,0.9v1.7c0,0.4,0.3,0.7,0.7,0.7h0.6c0.4,0,0.7-0.3,0.7-0.7V24c0-0.4,0.3-0.8,0.7-0.9l1.1-0.5c0.3-0.2,0.8-0.1,1.1,0.1l1.3,1.3c0.3,0.3,0.7,0.3,1,0l0.4-0.4c0.3-0.3,0.3-0.7,0-1l-1.3-1.3C25,21,25,20.5,25.1,20.2l0.4-1.1c0.1-0.4,0.5-0.7,0.9-0.7h1.9c0.4,0,0.7-0.3,0.7-0.7v-0.6C29,16.7,28.7,16.4,28.3,16.4z M23.8,17.5c0,2.2-1.8,3.9-3.9,3.9c-2.2,0-3.9-1.8-3.9-3.9s1.7-3.9,3.9-3.9C22.1,13.6,23.8,15.3,23.8,17.5z" fill="#FFFFFF" stroke-width="0px"></path></g></g></svg>